<svg width="116" height="29" viewBox="0 0 116 29" fill="none" xmlns="http://www.w3.org/2000/svg">
<path d="M64.0138 13.6333V14.6466H48H47.5V15.1466V16.1554V16.6554H48H64.0138V17.6687V18.3853L64.6863 18.1379L70.1726 16.1203L71.4486 15.651L70.1726 15.1817L64.6863 13.164L64.0138 12.9167V13.6333Z" fill="#FFCA12" stroke="#FFCA12"/>
<path d="M14.688 10.184V21.056C14.688 25.568 12.384 27.824 7.776 27.824C6.544 27.824 5.376 27.664 4.272 27.344C3.168 27.04 2.256 26.592 1.536 26L2.88 23.744C3.44 24.208 4.144 24.576 4.992 24.848C5.856 25.136 6.728 25.28 7.608 25.28C9.016 25.28 10.048 24.96 10.704 24.32C11.36 23.68 11.688 22.704 11.688 21.392V20.72C11.176 21.28 10.552 21.704 9.816 21.992C9.08 22.28 8.272 22.424 7.392 22.424C6.176 22.424 5.072 22.168 4.08 21.656C3.104 21.128 2.328 20.392 1.752 19.448C1.192 18.504 0.912 17.424 0.912 16.208C0.912 14.992 1.192 13.92 1.752 12.992C2.328 12.048 3.104 11.32 4.08 10.808C5.072 10.296 6.176 10.04 7.392 10.04C8.32 10.04 9.16 10.192 9.912 10.496C10.68 10.8 11.32 11.264 11.832 11.888V10.184H14.688ZM7.848 19.88C8.984 19.88 9.912 19.544 10.632 18.872C11.368 18.184 11.736 17.296 11.736 16.208C11.736 15.136 11.368 14.264 10.632 13.592C9.912 12.92 8.984 12.584 7.848 12.584C6.696 12.584 5.752 12.92 5.016 13.592C4.296 14.264 3.936 15.136 3.936 16.208C3.936 17.296 4.296 18.184 5.016 18.872C5.752 19.544 6.696 19.88 7.848 19.88ZM18.6321 10.184H21.6321V23H18.6321V10.184ZM20.1441 8.072C19.6001 8.072 19.1441 7.904 18.7761 7.568C18.4081 7.216 18.2241 6.784 18.2241 6.272C18.2241 5.76 18.4081 5.336 18.7761 5C19.1441 4.648 19.6001 4.472 20.1441 4.472C20.6881 4.472 21.1441 4.64 21.5121 4.976C21.8801 5.296 22.0641 5.704 22.0641 6.2C22.0641 6.728 21.8801 7.176 21.5121 7.544C21.1601 7.896 20.7041 8.072 20.1441 8.072ZM30.7776 7.448C29.5136 7.448 28.8816 8.136 28.8816 9.512V10.28H32.4096V12.68H28.9776V23H25.9776V12.68H23.8656V10.28H25.9776V9.464C25.9776 8.088 26.3776 7.008 27.1776 6.224C27.9776 5.424 29.1056 5.024 30.5616 5.024C31.7136 5.024 32.6176 5.256 33.2736 5.72L32.4336 7.976C31.9216 7.624 31.3696 7.448 30.7776 7.448ZM42.1329 22.304C41.7809 22.592 41.3489 22.808 40.8369 22.952C40.3409 23.096 39.8129 23.168 39.2529 23.168C37.8449 23.168 36.7569 22.8 35.9889 22.064C35.2209 21.328 34.8369 20.256 34.8369 18.848V12.68H32.7249V10.28H34.8369V7.352H37.8369V10.28H41.2689V12.68H37.8369V18.776C37.8369 19.4 37.9889 19.88 38.2929 20.216C38.5969 20.536 39.0369 20.696 39.6129 20.696C40.2849 20.696 40.8449 20.52 41.2929 20.168L42.1329 22.304Z" fill="#FFCA12"/>
<path d="M93.144 10.04C94.76 10.04 96.04 10.512 96.984 11.456C97.928 12.384 98.4 13.784 98.4 15.656V23H95.4V16.04C95.4 14.92 95.152 14.08 94.656 13.52C94.16 12.944 93.448 12.656 92.52 12.656C91.512 12.656 90.704 12.992 90.096 13.664C89.488 14.32 89.184 15.264 89.184 16.496V23H86.184V16.04C86.184 14.92 85.936 14.08 85.44 13.52C84.944 12.944 84.232 12.656 83.304 12.656C82.28 12.656 81.464 12.984 80.856 13.64C80.264 14.296 79.968 15.248 79.968 16.496V23H76.968V10.184H79.824V11.816C80.304 11.24 80.904 10.8 81.624 10.496C82.344 10.192 83.144 10.04 84.024 10.04C84.984 10.04 85.832 10.224 86.568 10.592C87.32 10.944 87.912 11.472 88.344 12.176C88.872 11.504 89.552 10.984 90.384 10.616C91.216 10.232 92.136 10.04 93.144 10.04ZM114.399 16.664C114.399 16.872 114.383 17.168 114.351 17.552H104.295C104.471 18.496 104.927 19.248 105.663 19.808C106.415 20.352 107.343 20.624 108.447 20.624C109.855 20.624 111.015 20.16 111.927 19.232L113.535 21.08C112.959 21.768 112.231 22.288 111.351 22.64C110.471 22.992 109.479 23.168 108.375 23.168C106.967 23.168 105.727 22.888 104.655 22.328C103.583 21.768 102.751 20.992 102.159 20C101.583 18.992 101.295 17.856 101.295 16.592C101.295 15.344 101.575 14.224 102.135 13.232C102.711 12.224 103.503 11.44 104.511 10.88C105.519 10.32 106.655 10.04 107.919 10.04C109.167 10.04 110.279 10.32 111.255 10.88C112.247 11.424 113.015 12.2 113.559 13.208C114.119 14.2 114.399 15.352 114.399 16.664ZM107.919 12.44C106.959 12.44 106.143 12.728 105.471 13.304C104.815 13.864 104.415 14.616 104.271 15.56H111.543C111.415 14.632 111.023 13.88 110.367 13.304C109.711 12.728 108.895 12.44 107.919 12.44Z" fill="#FFCA12"/>
</svg>
