<svg width="131" height="131" viewBox="0 0 131 131" fill="none" xmlns="http://www.w3.org/2000/svg">
<g clip-path="url(#clip0)">
<path d="M40.3198 68.1086C40.2369 68.1086 40.1539 68.1056 40.07 68.1006L4.00377 65.8488C2.63152 65.7639 1.4002 64.9793 0.742558 63.773C0.0859184 62.5666 0.093914 61.1064 0.765545 59.9071C0.954441 59.5693 5.49994 51.5547 14.1562 44.5645C25.8538 35.1197 39.4523 32.0564 53.4806 35.7064C54.645 36.0092 55.6104 36.8208 56.1102 37.9152C56.6099 39.0096 56.5899 40.2709 56.0552 41.3483L43.9009 65.8858C43.2232 67.2531 41.831 68.1086 40.3198 68.1086V68.1086Z" fill="#FF5B5B"/>
<path d="M69.3949 131C68.7372 131 68.0796 130.838 67.4829 130.512C66.2766 129.855 65.492 128.624 65.406 127.252L63.1553 91.186C63.0553 89.5798 63.9279 88.0697 65.3701 87.3551L89.9076 75.1997C90.986 74.666 92.2463 74.646 93.3407 75.1458C94.4361 75.6445 95.2467 76.611 95.5495 77.7753C99.2005 91.8036 96.1372 105.402 86.6914 117.1C79.7022 125.756 71.6866 130.3 71.3488 130.49C70.7421 130.83 70.0685 131 69.3949 131Z" fill="#FF193D"/>
<path d="M124.844 32.2533L99.0026 6.41145C97.9672 5.37602 96.448 4.99023 95.0438 5.40501C77.7443 10.5222 63.5431 18.5478 52.832 29.2579C50.5982 31.4927 48.4524 33.9144 46.4555 36.455C40.6486 43.8379 35.7983 52.5671 32.0404 62.4007C29.6467 68.6683 27.6978 75.3826 26.2476 82.3568C23.7149 94.5391 23.579 103.27 23.574 103.636C23.561 104.712 23.9828 105.75 24.7444 106.511C25.494 107.261 26.5114 107.682 27.5708 107.682H27.6198C27.9866 107.678 36.7178 107.542 48.8991 105.009C55.8733 103.559 62.5876 101.61 68.8562 99.2155C78.6888 95.4576 87.418 90.6082 94.7989 84.8024C97.3415 82.8045 99.7632 80.6587 101.998 78.4239C112.709 67.7128 120.735 53.5116 125.851 36.2121C126.267 34.8079 125.88 33.2887 124.844 32.2533V32.2533Z" fill="#E1F1FA"/>
<path d="M51.6296 98.9877L32.2683 79.6263C30.839 78.1971 28.5673 78.0601 26.9762 79.3075C25.7398 80.2769 24.5635 81.3184 23.4801 82.4018C10.0085 95.8734 9.59171 116.747 9.58072 117.628C9.56673 118.706 9.9885 119.743 10.7511 120.505C11.5007 121.255 12.5171 121.676 13.5765 121.676C13.5935 121.676 13.6105 121.676 13.6275 121.675C14.509 121.664 35.3835 121.247 48.8542 107.776C49.9376 106.692 50.979 105.516 51.9485 104.28C53.1958 102.689 53.0588 100.417 51.6296 98.9877V98.9877Z" fill="#FFF261"/>
<path d="M32.3492 61.6012L20.4707 73.4806C19.7212 74.2292 19.2994 75.2457 19.2994 76.3061C19.2994 77.3655 19.7212 78.3819 20.4707 79.1315L52.1244 110.785C52.873 111.535 53.8894 111.955 54.9498 111.955C56.0102 111.955 57.0257 111.535 57.7753 110.785L69.6537 98.9067L32.3492 61.6012Z" fill="#1B3B6B"/>
<path d="M84.2038 59.2445C80.9475 59.2445 77.8852 57.9762 75.5825 55.6735C70.8291 50.9201 70.8291 43.1863 75.5825 38.4319C77.8852 36.1292 80.9475 34.8609 84.2038 34.8609C87.46 34.8609 90.5223 36.1292 92.825 38.4319C95.1278 40.7347 96.3961 43.796 96.3961 47.0532C96.3961 50.3094 95.1278 53.3707 92.825 55.6735C90.5223 57.9762 87.46 59.2445 84.2038 59.2445Z" fill="#06CCAB"/>
<path d="M84.2027 63.1533C79.9021 63.1533 75.8593 61.4782 72.819 58.4379C66.5414 52.1603 66.5414 41.9459 72.819 35.6684C75.8593 32.6281 79.9031 30.953 84.2027 30.953C88.5034 30.953 92.5461 32.6281 95.5875 35.6684C98.6288 38.7097 100.303 42.7525 100.303 47.0531C100.303 51.3538 98.6288 55.3966 95.5875 58.4379C92.5461 61.4782 88.5034 63.1533 84.2027 63.1533V63.1533ZM84.2027 38.9456C82.0379 38.9456 80.001 39.7891 78.4699 41.3203C75.3096 44.4816 75.3096 49.6247 78.4699 52.786C80.001 54.3172 82.0379 55.1607 84.2027 55.1607C86.3685 55.1607 88.4044 54.3172 89.9356 52.786C91.4667 51.2548 92.3103 49.219 92.3103 47.0531C92.3103 44.8873 91.4667 42.8514 89.9356 41.3203C88.4044 39.7891 86.3685 38.9456 84.2027 38.9456Z" fill="#1B3B6B"/>
<path d="M130.086 1.17138C129.323 0.408802 128.28 -0.0199625 127.208 0.00102599C126.615 0.00802215 112.488 0.245891 95.0438 5.40506L125.851 36.2121C131.01 18.7677 131.248 4.64048 131.255 4.0478C131.269 2.9704 130.847 1.93297 130.086 1.17138V1.17138Z" fill="#FF5B5B"/>
<path d="M124.844 32.2533L111.924 19.3324L24.7444 106.512C25.494 107.261 26.5104 107.682 27.5698 107.682H27.6198C27.9856 107.678 36.7168 107.542 48.8991 105.009C55.8733 103.559 62.5866 101.61 68.8552 99.2155C78.6888 95.4576 87.418 90.6082 94.7989 84.8024C97.3405 82.8045 99.7632 80.6587 101.997 78.4239C112.708 67.7128 120.734 53.5116 125.85 36.2121C126.267 34.8079 125.88 33.2887 124.844 32.2533V32.2533Z" fill="#F3F5FD"/>
<path d="M51.6296 98.9876L41.9489 89.307L10.7501 120.505V120.506C11.5006 121.255 12.5171 121.676 13.5765 121.676H13.6265C14.509 121.665 35.3825 121.247 48.8541 107.776C49.9375 106.692 50.979 105.516 51.9474 104.28C53.1957 102.689 53.0598 100.417 51.6296 98.9876V98.9876Z" fill="#FDBF00"/>
<path d="M51.0019 80.254L36.297 94.9589L52.1243 110.786C52.8729 111.535 53.8894 111.957 54.9498 111.957C56.0102 111.957 57.0256 111.535 57.7752 110.786L69.6537 98.9067L51.0019 80.254Z" fill="#001035"/>
<path d="M92.825 38.4319C92.824 38.4319 92.824 38.4319 92.824 38.4319L75.5825 55.6735H75.5835C77.8852 57.9762 80.9475 59.2445 84.2037 59.2445C87.4599 59.2445 90.5223 57.9762 92.825 55.6735C95.1277 53.3707 96.396 50.3094 96.396 47.0532C96.395 43.797 95.1277 40.7347 92.825 38.4319V38.4319Z" fill="#1CADB5"/>
<path d="M95.5875 35.6684L89.9356 41.3203C91.4668 42.8515 92.3103 44.8873 92.3103 47.0531C92.3103 49.219 91.4668 51.2548 89.9356 52.786C88.4044 54.3172 86.3686 55.1607 84.2028 55.1607C82.0369 55.1607 80.0011 54.3172 78.4699 52.786C78.4699 52.786 78.4699 52.786 78.4699 52.785L72.818 58.4369V58.4379C75.8593 61.4782 79.9021 63.1533 84.2028 63.1533C88.5034 63.1533 92.5462 61.4782 95.5875 58.4379C98.6278 55.3966 100.303 51.3538 100.303 47.0531C100.303 42.7525 98.6278 38.7097 95.5875 35.6684Z" fill="#001035"/>
<path d="M130.085 1.17033L110.447 20.8085L125.851 36.2121C131.01 18.7677 131.248 4.64042 131.255 4.04775C131.269 2.97034 130.847 1.93291 130.085 1.17033V1.17033Z" fill="#FF193D"/>
</g>
<defs>
<clipPath id="clip0">
<rect width="131" height="131" fill="white"/>
</clipPath>
</defs>
</svg>
